# This file uses centimeters as units for non-parametric coordinates.

mtllib background.mtl
g default
v -10.274762 -14.179083 19.355865
v 26.088718 -14.058232 -15.829344
v 17.749950 10.550037 -24.109269
v -18.613530 10.429187 11.075941
v 22.753209 -4.214924 -19.141314
v -13.610268 -4.335775 16.043895
v 4.270630 -14.130743 5.281781
v 0.935123 -4.287435 1.969811
v 2.602876 -9.209089 3.625796
v -11.942515 -9.257429 17.699880
v -3.002066 -14.154913 12.318823
v -4.669820 -9.233259 10.662838
v -6.337573 -4.311605 9.006854
v 11.543326 -14.106573 -1.755261
v 8.207819 -4.263265 -5.067230
v 9.875572 -9.184919 -3.411246
v 24.420965 -9.136578 -17.485329
v 18.816021 -14.082402 -8.792303
v 17.148268 -9.160749 -10.448287
v 15.480515 -4.239095 -12.104272
v -4.068138 10.477528 -2.998143
v -15.278022 0.585879 14.387910
v -0.732631 0.634219 0.313827
v -8.005327 0.610049 7.350869
v -16.945777 5.507532 12.731926
v -2.400384 5.555873 -1.342158
v -9.673080 5.531703 5.694884
v -11.340833 10.453357 4.038899
v 21.085456 0.706730 -20.797299
v 6.540065 0.658389 -6.723215
v 13.812761 0.682559 -13.760257
v 3.204558 10.501697 -10.035185
v 4.872312 5.580043 -8.379200
v 19.417703 5.628384 -22.453284
v 12.145007 5.604214 -15.416242
v 10.477254 10.525867 -17.072227
vt 0.000000 0.000000
vt 1.000000 0.000000
vt 1.000000 1.000000
vt 0.000000 1.000000
vt 1.000000 0.400000
vt 0.000000 0.400000
vt 0.400000 0.000000
vt 0.400000 0.400000
vt 0.400000 0.200000
vt 0.000000 0.200000
vt 0.200000 0.000000
vt 0.200000 0.200000
vt 0.200000 0.400000
vt 0.600000 0.000000
vt 0.600000 0.400000
vt 0.600000 0.200000
vt 1.000000 0.200000
vt 0.800000 0.000000
vt 0.800000 0.200000
vt 0.800000 0.400000
vt 0.400000 1.000000
vt 0.000000 0.600000
vt 0.400000 0.600000
vt 0.200000 0.600000
vt 0.000000 0.800000
vt 0.400000 0.800000
vt 0.200000 0.800000
vt 0.200000 1.000000
vt 1.000000 0.600000
vt 0.600000 0.600000
vt 0.800000 0.600000
vt 0.600000 1.000000
vt 0.600000 0.800000
vt 1.000000 0.800000
vt 0.800000 0.800000
vt 0.800000 1.000000
vn 0.626779 0.430842 0.649248
vn 0.626779 0.430842 0.649248
vn 0.626779 0.430842 0.649248
vn 0.626779 0.430842 0.649248
vn 0.626779 0.430842 0.649248
vn 0.626779 0.430842 0.649248
vn 0.626779 0.430842 0.649248
vn 0.626779 0.430842 0.649248
vn 0.626779 0.430842 0.649248
vn 0.626779 0.430842 0.649248
vn 0.626779 0.430843 0.649248
vn 0.626779 0.430842 0.649248
vn 0.626779 0.430842 0.649248
vn 0.626779 0.430842 0.649248
vn 0.626779 0.430842 0.649248
vn 0.626779 0.430842 0.649248
vn 0.626779 0.430842 0.649248
vn 0.626779 0.430842 0.649248
vn 0.626779 0.430842 0.649248
vn 0.626779 0.430842 0.649248
vn 0.626779 0.430842 0.649248
vn 0.626779 0.430842 0.649248
vn 0.626779 0.430842 0.649248
vn 0.626779 0.430842 0.649248
vn 0.626779 0.430842 0.649248
vn 0.626779 0.430842 0.649248
vn 0.626779 0.430842 0.649248
vn 0.626779 0.430842 0.649248
vn 0.626779 0.430842 0.649248
vn 0.626779 0.430842 0.649248
vn 0.626779 0.430842 0.649248
vn 0.626779 0.430842 0.649248
vn 0.626779 0.430842 0.649248
vn 0.626779 0.430843 0.649248
vn 0.626779 0.430842 0.649248
vn 0.626779 0.430842 0.649248
s 1
g nurbsToPoly1
usemtl blinn1SG
f 34/34/1 3/3/2 35/35/3
f 17/17/4 5/5/5 19/19/6
f 9/9/7 8/8/8 12/12/9
f 11/11/10 7/7/11 9/9/7
f 1/1/12 11/11/10 12/12/9
f 10/10/13 12/12/9 13/13/14
f 16/16/15 15/15/16 9/9/7
f 7/7/11 14/14/17 16/16/15
f 18/18/18 2/2/19 17/17/4
f 14/14/17 18/18/18 19/19/6
f 16/16/15 19/19/6 20/20/20
f 27/27/21 26/26/22 21/21/23
f 13/13/14 8/8/8 23/23/24
f 6/6/25 13/13/14 24/24/26
f 24/24/26 23/23/24 26/26/22
f 22/22/27 24/24/26 27/27/21
f 25/25/28 27/27/21 28/28/29
f 5/5/5 29/29/30 20/20/20
f 8/8/8 15/15/16 30/30/31
f 15/15/16 20/20/20 31/31/32
f 26/26/22 33/33/33 32/32/34
f 23/23/24 30/30/31 33/33/33
f 29/29/30 34/34/1 31/31/32
f 30/30/31 31/31/32 35/35/3
f 33/33/33 35/35/3 36/36/35
f 3/3/2 36/36/35 35/35/3
f 5/5/5 20/20/20 19/19/6
f 8/8/8 13/13/14 12/12/9
f 9/9/7 12/12/9 11/11/10
f 12/12/9 10/10/13 1/1/12
f 13/13/14 6/6/25 10/10/13
f 15/15/16 8/8/8 9/9/7
f 16/16/15 9/9/7 7/7/11
f 17/17/4 19/19/6 18/18/18
f 19/19/6 16/16/15 14/14/17
f 20/20/20 15/15/16 16/16/15
f 21/21/23 28/28/29 27/27/21
f 23/23/24 24/24/26 13/13/14
f 24/24/26 22/22/27 6/6/25
f 26/26/22 27/27/21 24/24/26
f 27/27/21 25/25/28 22/22/27
f 28/28/29 4/4/36 25/25/28
f 29/29/30 31/31/32 20/20/20
f 30/30/31 23/23/24 8/8/8
f 31/31/32 30/30/31 15/15/16
f 32/32/34 21/21/23 26/26/22
f 33/33/33 26/26/22 23/23/24
f 34/34/1 35/35/3 31/31/32
f 35/35/3 33/33/33 30/30/31
f 36/36/35 32/32/34 33/33/33
